<?xml version="1.0" encoding="UTF-8"?>
<svg xmlns="http://www.w3.org/2000/svg" xmlns:xlink="http://www.w3.org/1999/xlink" width="56px" height="42px" viewBox="0 0 56 42" version="1.1">
<g id="surface1">
<path style=" stroke:none;fill-rule:evenodd;fill:rgb(36.078432%,26.666668%,48.627451%);fill-opacity:1;" d="M 3.175781 6.914062 C 3.125 6.976562 3.125 26.738281 3.175781 26.800781 C 3.207031 26.839844 3.339844 26.839844 4.609375 26.839844 L 6.007812 26.839844 L 6 16.863281 L 5.996094 6.886719 L 4.601562 6.878906 C 3.332031 6.875 3.207031 6.878906 3.175781 6.914062 M 45.359375 11.636719 C 44.871094 11.675781 44.558594 11.726562 44.097656 11.839844 C 43.796875 11.914062 43.273438 12.082031 43.109375 12.15625 C 42.902344 12.246094 42.304688 12.542969 42.15625 12.628906 C 41.953125 12.746094 41.460938 13.074219 41.394531 13.136719 C 41.367188 13.160156 41.316406 13.199219 41.289062 13.222656 C 41.074219 13.371094 40.46875 13.945312 40.253906 14.203125 C 40.226562 14.238281 40.183594 14.285156 40.15625 14.316406 C 39.910156 14.585938 39.402344 15.363281 39.179688 15.8125 C 38.96875 16.238281 38.746094 16.832031 38.652344 17.222656 C 38.636719 17.285156 38.613281 17.382812 38.597656 17.4375 C 38.535156 17.691406 38.460938 18.105469 38.429688 18.394531 C 38.398438 18.652344 38.398438 19.820312 38.425781 20.066406 C 38.464844 20.394531 38.535156 20.789062 38.597656 21.039062 C 38.613281 21.09375 38.640625 21.210938 38.664062 21.300781 C 38.800781 21.855469 39.148438 22.667969 39.46875 23.171875 C 39.53125 23.273438 39.613281 23.402344 39.648438 23.464844 C 39.746094 23.625 40.054688 24.035156 40.207031 24.210938 C 40.441406 24.480469 40.960938 24.988281 41.128906 25.117188 C 41.21875 25.183594 41.296875 25.246094 41.304688 25.253906 C 41.332031 25.285156 41.777344 25.605469 41.90625 25.6875 C 42.144531 25.839844 42.453125 26.003906 42.808594 26.167969 C 43.167969 26.335938 43.238281 26.363281 43.265625 26.363281 C 43.285156 26.363281 43.308594 26.371094 43.320312 26.382812 C 43.335938 26.394531 43.40625 26.421875 43.484375 26.449219 C 43.558594 26.472656 43.644531 26.503906 43.671875 26.511719 C 43.71875 26.53125 43.894531 26.582031 44.109375 26.640625 C 44.230469 26.671875 44.527344 26.734375 44.796875 26.78125 C 45.082031 26.832031 46.464844 26.859375 46.800781 26.820312 C 47.222656 26.769531 47.796875 26.667969 47.828125 26.632812 C 47.839844 26.625 47.871094 26.613281 47.902344 26.613281 C 47.960938 26.613281 48.558594 26.421875 48.601562 26.390625 C 48.617188 26.378906 48.660156 26.363281 48.695312 26.355469 C 48.734375 26.34375 48.832031 26.308594 48.910156 26.273438 C 49.148438 26.164062 49.375 26.058594 49.417969 26.039062 C 49.792969 25.839844 50.046875 25.691406 50.128906 25.625 C 50.144531 25.617188 50.246094 25.542969 50.355469 25.464844 C 51.027344 24.988281 51.691406 24.328125 52.125 23.699219 C 52.484375 23.179688 52.703125 22.800781 52.871094 22.410156 C 52.914062 22.304688 52.96875 22.175781 52.996094 22.121094 C 53.019531 22.066406 53.046875 21.992188 53.058594 21.957031 C 53.066406 21.921875 53.085938 21.867188 53.097656 21.835938 C 53.15625 21.695312 53.171875 21.652344 53.242188 21.417969 C 53.285156 21.28125 53.320312 21.148438 53.320312 21.125 C 53.320312 21.097656 53.332031 21.050781 53.34375 21.019531 C 53.382812 20.925781 53.445312 20.609375 53.445312 20.523438 C 53.445312 20.480469 53.457031 20.425781 53.472656 20.402344 C 53.507812 20.335938 53.554688 19.703125 53.554688 19.238281 C 53.554688 18.796875 53.515625 18.203125 53.472656 18.054688 C 53.460938 18.003906 53.429688 17.851562 53.40625 17.714844 C 53.382812 17.574219 53.355469 17.453125 53.34375 17.4375 C 53.332031 17.425781 53.320312 17.390625 53.320312 17.359375 C 53.320312 17.308594 53.261719 17.089844 53.222656 16.984375 C 53.210938 16.957031 53.183594 16.871094 53.160156 16.796875 C 53.136719 16.71875 53.109375 16.632812 53.097656 16.605469 C 53.082031 16.578125 53.03125 16.453125 52.980469 16.328125 C 52.785156 15.835938 52.679688 15.625 52.40625 15.191406 C 51.898438 14.378906 51.277344 13.691406 50.578125 13.167969 C 50.496094 13.105469 50.410156 13.035156 50.382812 13.011719 C 50.355469 12.988281 50.324219 12.96875 50.316406 12.96875 C 50.304688 12.96875 50.28125 12.953125 50.261719 12.9375 C 50.199219 12.875 50.023438 12.769531 49.679688 12.578125 C 49.652344 12.566406 49.625 12.546875 49.617188 12.539062 C 49.585938 12.503906 48.957031 12.207031 48.742188 12.121094 C 47.6875 11.714844 46.503906 11.546875 45.359375 11.636719 M 13.769531 11.660156 C 13.277344 11.699219 12.96875 11.75 12.503906 11.863281 C 12.203125 11.9375 11.679688 12.105469 11.515625 12.179688 C 11.308594 12.273438 10.714844 12.570312 10.5625 12.65625 C 10.359375 12.773438 9.867188 13.097656 9.800781 13.160156 C 9.773438 13.1875 9.726562 13.226562 9.695312 13.246094 C 9.484375 13.394531 8.875 13.972656 8.660156 14.230469 C 8.632812 14.261719 8.589844 14.3125 8.566406 14.339844 C 8.320312 14.609375 7.8125 15.386719 7.585938 15.839844 C 7.375 16.265625 7.152344 16.855469 7.058594 17.25 C 7.042969 17.308594 7.019531 17.40625 7.007812 17.460938 C 6.941406 17.714844 6.871094 18.128906 6.835938 18.417969 C 6.804688 18.675781 6.804688 19.84375 6.835938 20.09375 C 6.875 20.417969 6.945312 20.816406 7.007812 21.0625 C 7.019531 21.117188 7.050781 21.238281 7.074219 21.328125 C 7.210938 21.882812 7.558594 22.691406 7.875 23.195312 C 7.9375 23.296875 8.019531 23.429688 8.058594 23.488281 C 8.15625 23.652344 8.460938 24.0625 8.613281 24.234375 C 8.851562 24.503906 9.371094 25.015625 9.539062 25.140625 C 9.628906 25.210938 9.707031 25.273438 9.714844 25.28125 C 9.742188 25.3125 10.183594 25.632812 10.3125 25.714844 C 10.554688 25.867188 10.863281 26.03125 11.214844 26.191406 C 11.578125 26.359375 11.644531 26.386719 11.671875 26.386719 C 11.691406 26.386719 11.714844 26.398438 11.730469 26.410156 C 11.742188 26.417969 11.816406 26.449219 11.890625 26.472656 C 11.964844 26.5 12.050781 26.527344 12.078125 26.539062 C 12.125 26.558594 12.300781 26.609375 12.515625 26.664062 C 12.636719 26.695312 12.933594 26.757812 13.207031 26.804688 C 13.488281 26.855469 14.871094 26.882812 15.207031 26.84375 C 15.632812 26.796875 16.203125 26.691406 16.238281 26.660156 C 16.246094 26.648438 16.277344 26.640625 16.308594 26.640625 C 16.367188 26.640625 16.96875 26.449219 17.007812 26.417969 C 17.023438 26.40625 17.066406 26.386719 17.105469 26.378906 C 17.144531 26.371094 17.238281 26.332031 17.316406 26.296875 C 17.554688 26.191406 17.785156 26.085938 17.824219 26.0625 C 18.199219 25.863281 18.457031 25.714844 18.539062 25.652344 C 18.550781 25.640625 18.652344 25.566406 18.761719 25.488281 C 19.4375 25.011719 20.097656 24.351562 20.53125 23.726562 C 20.894531 23.203125 21.109375 22.828125 21.277344 22.433594 C 21.320312 22.332031 21.378906 22.199219 21.402344 22.144531 C 21.425781 22.089844 21.453125 22.015625 21.464844 21.980469 C 21.472656 21.949219 21.492188 21.894531 21.503906 21.863281 C 21.5625 21.722656 21.578125 21.679688 21.652344 21.445312 C 21.695312 21.308594 21.730469 21.175781 21.730469 21.148438 C 21.730469 21.125 21.738281 21.078125 21.75 21.046875 C 21.789062 20.949219 21.855469 20.632812 21.855469 20.550781 C 21.855469 20.507812 21.867188 20.449219 21.878906 20.425781 C 21.917969 20.359375 21.960938 19.726562 21.960938 19.261719 C 21.960938 18.824219 21.921875 18.226562 21.882812 18.078125 C 21.871094 18.03125 21.839844 17.878906 21.816406 17.738281 C 21.789062 17.601562 21.761719 17.476562 21.75 17.464844 C 21.738281 17.449219 21.730469 17.414062 21.730469 17.382812 C 21.730469 17.332031 21.671875 17.117188 21.628906 17.007812 C 21.617188 16.980469 21.589844 16.894531 21.566406 16.820312 C 21.546875 16.742188 21.515625 16.660156 21.503906 16.632812 C 21.492188 16.605469 21.441406 16.480469 21.390625 16.355469 C 21.191406 15.863281 21.085938 15.652344 20.8125 15.214844 C 20.308594 14.40625 19.6875 13.71875 18.988281 13.191406 C 18.90625 13.132812 18.816406 13.0625 18.789062 13.035156 C 18.761719 13.011719 18.730469 12.992188 18.722656 12.992188 C 18.710938 12.992188 18.6875 12.980469 18.671875 12.960938 C 18.609375 12.902344 18.433594 12.792969 18.085938 12.605469 C 18.058594 12.589844 18.03125 12.570312 18.023438 12.5625 C 17.992188 12.53125 17.363281 12.230469 17.148438 12.148438 C 16.097656 11.742188 14.910156 11.570312 13.769531 11.660156 M 29.640625 11.886719 C 29.316406 11.914062 29.011719 11.953125 28.789062 11.996094 C 28.519531 12.050781 28.207031 12.125 28.125 12.164062 C 28.097656 12.175781 28.046875 12.191406 28.011719 12.199219 C 27.566406 12.316406 26.683594 12.746094 26.160156 13.101562 C 25.507812 13.546875 25.058594 13.964844 24.460938 14.691406 C 24.238281 14.964844 23.890625 15.523438 23.675781 15.949219 C 23.304688 16.691406 23.078125 17.480469 22.957031 18.433594 C 22.925781 18.667969 22.925781 19.792969 22.957031 20.042969 C 22.976562 20.222656 22.988281 20.285156 23.054688 20.660156 C 23.121094 21.039062 23.273438 21.601562 23.359375 21.792969 C 23.371094 21.820312 23.414062 21.933594 23.457031 22.042969 C 23.703125 22.679688 24.21875 23.535156 24.660156 24.035156 C 24.917969 24.328125 25.261719 24.675781 25.472656 24.851562 C 25.765625 25.097656 26.210938 25.433594 26.296875 25.46875 C 26.339844 25.488281 26.464844 25.542969 26.574219 25.589844 C 26.683594 25.636719 26.824219 25.695312 26.886719 25.722656 C 26.949219 25.746094 27.058594 25.792969 27.128906 25.824219 C 27.203125 25.859375 27.277344 25.886719 27.292969 25.886719 C 27.3125 25.886719 27.335938 25.894531 27.351562 25.90625 C 27.363281 25.917969 27.4375 25.945312 27.511719 25.96875 C 27.585938 25.996094 27.671875 26.023438 27.699219 26.035156 C 27.746094 26.054688 27.9375 26.109375 28.136719 26.160156 C 28.300781 26.203125 28.574219 26.257812 28.851562 26.304688 C 29.15625 26.355469 29.234375 26.355469 32.527344 26.324219 C 33.9375 26.3125 34.308594 26.316406 34.324219 26.339844 C 34.347656 26.378906 34.261719 26.617188 34.109375 26.921875 C 33.585938 27.96875 32.671875 28.769531 31.5625 29.15625 C 31.03125 29.339844 30.5 29.417969 29.882812 29.40625 C 29.398438 29.394531 29.40625 29.390625 29.339844 29.785156 C 29.324219 29.863281 29.316406 30.324219 29.3125 30.816406 C 29.3125 31.601562 29.316406 31.714844 29.351562 31.769531 L 29.394531 31.832031 L 30.125 31.820312 C 30.890625 31.804688 31.128906 31.78125 31.660156 31.664062 C 33.480469 31.25 35.066406 30.097656 36.035156 28.472656 C 36.4375 27.804688 36.746094 27.066406 36.800781 26.652344 C 36.816406 26.515625 36.824219 24.777344 36.824219 21.304688 L 36.820312 16.160156 L 36.761719 15.96875 C 36.671875 15.679688 36.523438 15.410156 36.128906 14.808594 C 35.773438 14.269531 35.152344 13.660156 34.433594 13.152344 C 33.597656 12.5625 32.378906 12.066406 31.503906 11.960938 C 31.367188 11.945312 31.207031 11.921875 31.144531 11.910156 C 31 11.875 29.9375 11.859375 29.640625 11.886719 M 45.835938 14.363281 C 45.828125 14.371094 45.710938 14.390625 45.570312 14.402344 C 43.425781 14.640625 41.714844 16.257812 41.355469 18.386719 C 41.289062 18.796875 41.269531 19.152344 41.304688 19.488281 C 41.386719 20.34375 41.648438 21.089844 42.101562 21.769531 C 42.601562 22.519531 43.203125 23.03125 44.089844 23.464844 C 44.542969 23.6875 44.625 23.714844 45.023438 23.808594 C 46.523438 24.152344 48.152344 23.6875 49.296875 22.589844 C 50.574219 21.363281 51.070312 19.523438 50.578125 17.804688 C 50.359375 17.039062 49.949219 16.347656 49.378906 15.773438 C 48.660156 15.046875 47.800781 14.597656 46.8125 14.425781 C 46.527344 14.375 45.863281 14.332031 45.835938 14.363281 M 14.242188 14.386719 C 14.234375 14.394531 14.117188 14.414062 13.980469 14.429688 C 11.835938 14.667969 10.125 16.28125 9.765625 18.410156 C 9.695312 18.820312 9.679688 19.179688 9.710938 19.515625 C 9.792969 20.371094 10.054688 21.113281 10.511719 21.796875 C 11.011719 22.542969 11.609375 23.054688 12.5 23.488281 C 12.949219 23.710938 13.035156 23.742188 13.429688 23.832031 C 14.929688 24.175781 16.558594 23.710938 17.707031 22.613281 C 18.984375 21.390625 19.476562 19.550781 18.984375 17.832031 C 18.765625 17.066406 18.359375 16.375 17.789062 15.800781 C 17.066406 15.074219 16.207031 14.621094 15.21875 14.453125 C 14.933594 14.402344 14.269531 14.359375 14.242188 14.386719 M 30.027344 14.554688 C 29.957031 14.566406 29.78125 14.59375 29.628906 14.617188 C 29.105469 14.695312 28.550781 14.886719 28.109375 15.136719 C 27.109375 15.707031 26.351562 16.609375 26.011719 17.636719 C 25.65625 18.71875 25.652344 19.554688 26 20.625 C 26.214844 21.292969 26.589844 21.894531 27.121094 22.421875 C 27.714844 23.015625 28.101562 23.199219 29.089844 23.355469 C 29.472656 23.417969 29.589844 23.421875 30.714844 23.445312 C 31.945312 23.46875 32.773438 23.460938 33.738281 23.414062 C 34.265625 23.390625 34.34375 23.382812 34.375 23.332031 C 34.386719 23.316406 34.394531 21.945312 34.394531 20.28125 L 34.394531 17.261719 L 34.246094 16.933594 C 34.0625 16.539062 33.847656 16.242188 33.457031 15.851562 C 33.117188 15.507812 32.734375 15.214844 32.375 15.027344 C 31.699219 14.671875 30.628906 14.457031 30.027344 14.554688 "/>
</g>
</svg>
